# xmcd
#
# Track frame offsets:
#	150
#	10456
#	20464
#	34557
#	49449
#	61622
#	73278
#	91568
#	101241
#	111512
#	121436
#	134666
#	144792
#	154431
#
# Disc length: 2179 seconds
#
# Revision: 1
# Processed by: cddbd v1.5.2PL0 Copyright (c) Steve Scherf et al.
# Submitted via: audiograbber 1.83.01
#
DISCID=c708810e
DTITLE=Gene Stuart - Hang On To The Memories
DYEAR=1900
DGENRE=
TTITLE0=You Can't Make A Heel Toe The Mark
TTITLE1=My Reason For Living
TTITLE2=Hang On To The Memories
TTITLE3=Haggard And Jones
TTITLE4=That's What It's Like To Be Lonesome
TTITLE5=Mama's Rocking Chair
TTITLE6=Pauline
TTITLE7=Do I Ever Cross Your Mind?
TTITLE8=I Know You're Not An Angel
TTITLE9=Too Soon To Tell
TTITLE10=Her Perfect Memory
TTITLE11=No Longer A Sweetheart Of Mine
TTITLE12=Call Me Lonesome
TTITLE13=A Fool Never Learns
EXTD=
EXTT0=
EXTT1=
EXTT2=
EXTT3=
EXTT4=
EXTT5=
EXTT6=
EXTT7=
EXTT8=
EXTT9=
EXTT10=
EXTT11=
EXTT12=
EXTT13=
PLAYORDER=
